<?xml version="1.0" encoding="UTF-8"?>
<svg version="1.1" xmlns="http://www.w3.org/2000/svg" width="100" height="100">
<path d="M0 0 C23.1 0 46.2 0 70 0 C70 20.9375 70 20.9375 69.9375 27.49194336 C69.66947759 38.9474339 69.66947759 38.9474339 75.01953125 48.640625 C75.74503174 49.23262695 76.47053223 49.82462891 77.21801758 50.43457031 C79 52 79 52 79.6875 55.8125 C78.98258233 59.08075466 78.39477095 60.69392427 76 63 C72.51669714 64.16110095 69.38591527 64.15527919 65.76220703 64.16113281 C64.66169006 64.16858017 64.66169006 64.16858017 63.53894043 64.17617798 C61.11188824 64.19078255 58.68490141 64.19759854 56.2578125 64.203125 C54.57013955 64.20887761 52.88246662 64.21463533 51.1947937 64.22039795 C47.65573828 64.23090291 44.11670554 64.23674896 40.57763672 64.24023438 C36.04586928 64.24571979 31.51440219 64.26975084 26.98272896 64.29820633 C23.49627815 64.31684195 20.00989958 64.32203879 16.52340317 64.32357025 C14.85286694 64.32659494 13.18233193 64.33461729 11.51184464 64.34775543 C9.17319204 64.36483651 6.83527194 64.36293102 4.49658203 64.35644531 C3.80861542 64.3656601 3.1206488 64.37487488 2.41183472 64.3843689 C-1.88529644 64.34709339 -4.57701447 63.61995706 -8 61 C-9.66130358 57.67739283 -9.52934163 55.70539144 -9 52 C-7.70421515 50.84489423 -6.3746821 49.72734759 -5.02734375 48.6328125 C1.82254853 41.20810409 0.09015482 30.39213491 0 20.9375 C0 14.028125 0 7.11875 0 0 Z M7 7 C7 18.22 7 29.44 7 41 C25.48 41 43.96 41 63 41 C63 29.78 63 18.56 63 7 C44.52 7 26.04 7 7 7 Z M-2 55 C-1.67 55.66 -1.34 56.32 -1 57 C22.76 57 46.52 57 71 57 C71.28351342 53.77741547 71.28351342 53.77741547 68.84155273 50.86450195 C64.00518879 46.30838695 57.80690105 47.12311129 51.53515625 47.16796875 C50.22848495 47.15985672 48.92181366 47.15174469 47.57554626 47.14338684 C44.81565542 47.13006628 42.05692906 47.13881414 39.29711914 47.1628418 C35.77457391 47.19140929 32.25537774 47.16138039 28.73313236 47.11420727 C25.35442593 47.07785224 21.97654126 47.09429198 18.59765625 47.10546875 C17.34018082 47.08816208 16.08270538 47.07085541 14.78712463 47.05302429 C6.85858188 47.1794503 2.65620512 48.36941227 -2 55 Z " fill="#9CCE50" transform="translate(15,18)"/>
<path d="M0 0 C1.98 0 3.96 0 6 0 C5.37514309 9.78224261 3.68656475 19.35794117 2 29 C0.02 29 -1.96 29 -4 29 C-3.37514309 19.21775739 -1.68656475 9.64205883 0 0 Z " fill="#9FD04E" transform="translate(49,28)"/>
<path d="M0 0 C2.475 0.99 2.475 0.99 5 2 C4.67 2.5775 4.34 3.155 4 3.75 C2.72924102 6.19883862 2.72924102 6.19883862 3 10 C3.93283296 12.20067421 3.93283296 12.20067421 5 14 C2 16 2 16 -1 16 C-3.17711516 13.97464086 -4.72617534 11.68173613 -6 9 C-5.33236054 4.8987862 -3.02657913 2.72392121 0 0 Z " fill="#A0D04D" transform="translate(37,34)"/>
<path d="M0 0 C3.7952131 1.49097658 5.61042731 3.75700849 8 7 C6.7508258 10.45925163 5.32472205 13.14693203 3 16 C0.5625 15.625 0.5625 15.625 -2 15 C-2.33 14.34 -2.66 13.68 -3 13 C-2.01 11.68 -1.02 10.36 0 9 C-0.33 8.401875 -0.66 7.80375 -1 7.1875 C-2 5 -2 5 -2 2 C-1.34 1.34 -0.68 0.68 0 0 Z " fill="#9FD04E" transform="translate(61,34)"/>
</svg>
